# xmcd
#
# Track frame offsets:
# 150
# 19431
# 33480
# 48607
# 66783
# 84225
# 97835
# 112859
# 124932
# 136675
# 155414
# 167651
# 182941
# 201218
# 231320
#
# Disc length: 3302 seconds
#
#
# Revision: 0
# Processed by: cddbd v1.5.1PL0 Copyright (c) Steve Scherf et al.
# Submitted via: FreeRIP 2.942 
#
DISCID=c50ce40f
DTITLE=Leonard Cohen - New Skin For The Old Ceremony (1974)
DYEAR=1974
DGENRE=Chanson
TTITLE0=Is This What You Wanted
TTITLE1=Chelsea Hotel #2
TTITLE2=Lover Lover Lover
TTITLE3=Field Commander Cohen
TTITLE4=Why Don't You Try
TTITLE5=There Is A War
TTITLE6=A Singer Must Die
TTITLE7=I Tried To Leave You
TTITLE8=Who By Fire
TTITLE9=Take This Longing
TTITLE10=Take This Longing
TTITLE11=Leaving Green Sleeves
TTITLE12=So Long, Marianne
TTITLE13=A Bunch Of Lonesome Heroes
TTITLE14=Seems So Long Ago, Nancy
EXTD=
EXTT0=
EXTT1=
EXTT2=
EXTT3=
EXTT4=
EXTT5=
EXTT6=
EXTT7=
EXTT8=
EXTT9=
EXTT10=
EXTT11=
EXTT12=
EXTT13=
EXTT14=
PLAYORDER=
